PathFileType	4	(X/Y/Z)	C:\Users\WrightLab\Desktop\Jo\P1.2Trial6.trc
DataRate	CameraRate	NumFrames	NumMarkers	Units	OrigDataRate	OrigDataStartFrame	OrigNumFrames
100.00	100.00	       19	19	mm	100.00	136	       542
Frame#	Time	Headset_Front			Headset_Back			Headset_Left			Headset_Right			Left_Shoulder			Right_Shoulder			Sternum			C7			Left Elbow			Right Elbow			Left Wrist			Right Wrist			Left ASIS			Right ASIS			S2			Left Knee			Right Knee			Left Ankle			Right Ankle			
		X1	Y1	Z1	X2	Y2	Z2	X3	Y3	Z3	X4	Y4	Z4	X5	Y5	Z5	X6	Y6	Z6	X7	Y7	Z7	X8	Y8	Z8	X9	Y9	Z9	X10	Y10	Z10	X11	Y11	Z11	X12	Y12	Z12	X13	Y13	Z13	X14	Y14	Z14	X15	Y15	Z15	X16	Y16	Z16	X17	Y17	Z17	X18	Y18	Z18	X19	Y19	Z19	

136	1.350	-661.73114	1387.18311	-417.87994	-673.31763	1492.73645	-707.92230	-558.11157	1431.53613	-598.45782	-773.25635	1424.69434	-518.72131	-463.93109	1220.96289	-626.79077	-886.77441	1231.72644	-641.35175	-684.48468	1163.31982	-515.09637	-669.99701	1286.91150	-748.85205	-406.02429	933.04315	-665.61615	-951.60718	981.71936	-696.43640	-359.09421	731.50885	-552.89105	-1028.64404	740.39069	-659.14337	-573.57666	848.89746	-498.06088	-914.29486	765.50366	-822.51947	-621.55865	895.43359	-800.07373	-636.54449	435.10434	-474.84061	-923.39008	422.41730	-611.45752	-654.21429	65.77702	-543.45660	-837.30981	191.33833	-878.44543	
137	1.360	-662.41327	1387.16357	-409.50616	-673.91022	1494.64160	-699.25146	-558.60284	1431.86621	-589.56738	-773.95001	1425.96545	-509.63138	-464.15338	1222.54456	-618.80853	-886.40802	1232.50122	-633.50964	-685.35211	1165.58728	-506.96967	-670.41656	1288.01587	-741.47290	-405.12817	934.61304	-656.02191				-358.13016	735.78912	-538.22430	-1031.97583	742.18884	-646.79108	-573.36871	851.49402	-488.44083	-914.76324	765.86346	-812.81232	-622.47919	896.45935	-790.99347	-632.10730	432.42822	-471.67276	-928.12262	426.41699	-585.43396	-654.09045	65.29465	-547.03351	-843.98962	192.05240	-854.90393	
138	1.370	-662.47418	1390.51550	-400.49881	-674.57245	1496.53699	-690.08582	-558.77594	1434.26013	-580.70392	-774.08844	1426.65039	-500.22037	-464.94229	1224.61328	-611.02191	-887.40686	1233.57324	-624.89825	-686.38379	1167.73328	-498.75571	-671.50757	1288.49487	-731.84204	-405.44269	937.31921	-645.41913	-955.58679	984.36676	-678.42993	-359.52359	737.94684	-524.95239	-1034.56787	742.96332	-633.89026	-571.83936	853.35773	-479.17575	-915.22290	768.32141	-803.03955	-623.78876	896.69525	-781.51141	-626.97821	430.92334	-468.66852	-932.97894	432.23154	-560.69141	-654.25977	64.14700	-550.65533	-852.05438	192.86853	-831.28772	
139	1.380	-661.87799	1391.21204	-391.64978	-675.26178	1498.10315	-680.70819	-559.59784	1434.89563	-572.33905	-773.71155	1428.17212	-490.92023	-465.21054	1225.99133	-602.92560	-888.93970	1235.46716	-618.30231	-686.66174	1168.89221	-490.54709	-673.25024	1290.86157	-724.47723	-403.11191	939.42157	-636.24792	-957.42383	985.92505	-669.98364	-358.69818	741.69696	-509.08746	-1037.02844	743.50818	-620.58044	-570.94574	855.64941	-468.74445	-915.88666	767.75061	-794.06000	-625.17432	896.71741	-772.17157	-621.61578	427.98026	-467.27808	-934.99841	438.26642	-537.73187	-653.79980	64.11852	-552.59735	-859.37384	191.71948	-806.85736	
140	1.390	-661.76593	1391.55005	-382.11441	-676.08868	1499.45117	-671.90118	-559.92767	1435.96741	-563.35510	-773.88275	1429.29785	-481.95148	-465.93524	1227.76428	-595.86334	-888.90747	1236.06494	-609.23047	-686.30164	1171.22681	-481.90918	-674.71918	1292.90198	-716.48035	-402.72992	940.28015	-625.16107	-959.34045	986.82574	-661.01080	-359.89441	744.18469	-495.28192	-1039.56750	745.33459	-607.73541	-569.22577	857.73291	-458.43872	-917.56799	770.17657	-784.85242	-626.68750	897.30255	-763.76624	-616.21948	425.25070	-464.30176	-934.68457	443.16183	-520.65302	-652.84247	64.28791	-554.86194	-866.67297	188.42181	-781.54211	
141	1.400	-662.16309	1393.10583	-374.33301	-676.90039	1500.67773	-663.15826	-560.17285	1437.12109	-554.97882	-774.26343	1430.15710	-472.95349	-465.69131	1228.92346	-588.49994	-889.03955	1236.31995	-600.52722	-686.94177	1172.17078	-472.85779	-675.38690	1292.59875	-707.10132	-401.92734	941.68787	-617.05188	-960.92126	987.97736	-652.30518	-358.54675	748.49597	-480.80496	-1041.30994	745.70282	-594.00903	-568.10449	859.30682	-449.53464	-917.68182	769.94250	-774.67285	-628.52820	897.41327	-754.93225	-610.87030	422.73361	-461.18680	-936.00726	449.71021	-503.77472	-652.80304	64.35387	-554.92914	-873.44391	185.07166	-755.75928	
142	1.410	-661.67438	1393.58020	-364.65295	-677.83447	1501.49805	-654.29181	-561.14935	1438.29871	-546.97656	-774.11658	1429.80969	-462.99249	-466.78525	1230.24756	-580.72571	-889.66394	1237.66016	-592.46954	-686.28754	1173.12195	-463.82242	-675.75629	1292.68677	-698.62976	-401.35114	943.17950	-606.99274	-962.24188	989.24902	-643.98871	-357.55942	751.43304	-465.74466	-1042.95520	746.13934	-580.35175	-566.78430	860.85992	-440.21463	-917.94965	771.38226	-762.73676	-630.49500	897.89777	-746.97675	-605.47424	421.40891	-458.65118	-933.80292	452.57205	-485.53711	-652.96027	65.09686	-555.53265	-880.19061	182.58032	-729.28320	
143	1.420	-661.96094	1394.62451	-355.94299	-678.83490	1502.13330	-645.30798	-561.62610	1439.08545	-538.41223	-774.85284	1431.52295	-454.13199	-467.17191	1231.04651	-572.61542	-890.52740	1238.70862	-583.94385	-687.12787	1174.25964	-455.54221	-675.99725	1292.00037	-688.65112	-400.64908	943.88843	-597.10187	-963.56317	989.99146	-635.35168	-358.84158	753.99664	-451.32446	-1044.44421	747.18640	-567.80347	-565.88635	862.03967	-432.96527	-917.88501	770.99902	-753.40625	-632.82599	898.00787	-738.74786	-601.29742	419.45206	-455.96027	-933.28204	455.41974	-467.55081	-653.03088	65.59200	-556.11505	-887.98712	177.75787	-702.64600	
144	1.430	-661.72797	1394.14795	-347.40158	-679.97565	1502.22876	-636.58252	-562.54919	1439.27734	-529.20337	-776.53223	1431.72217	-446.52567	-467.43143	1231.79785	-564.47198	-891.03888	1238.96692	-574.63617	-686.70209	1174.84998	-447.02298	-676.92340	1292.30579	-680.11871	-400.18173	944.53711	-588.12378	-964.56512	990.96234	-626.32880	-358.59796	757.33405	-437.78113	-1045.46094	747.98468	-554.87927	-564.47675	863.35956	-423.51218	-918.81732	772.75909	-743.14246	-635.41406	898.12390	-730.04779	-596.64551	418.10486	-453.58060	-931.91461	459.18802	-451.06207	-652.87903	65.05365	-556.81659	-895.63354	174.08975	-675.48871	
145	1.440	-660.88397	1396.22766	-338.02704	-680.91364	1502.73657	-627.58301	-562.47528	1440.16309	-522.43512	-776.73090	1431.82593	-437.14987	-467.79077	1232.31250	-556.49646	-892.11414	1240.02063	-565.58740	-685.99371	1175.55469	-438.50632	-678.17780	1294.27515	-673.30304	-397.98337	945.58856	-578.71967	-967.06445	992.67371	-618.78809	-359.00021	759.90320	-423.31253	-1045.77234	748.65405	-541.64526	-562.81250	863.84192	-414.98868	-917.82355	771.93835	-731.28613	-638.11725	898.06799	-721.94244	-591.41345	415.82596	-451.31293	-927.59381	461.80975	-432.91733	-652.94995	64.05511	-555.74982	-902.37225	169.00642	-647.54675	
146	1.450	-661.79535	1395.69604	-328.72104	-682.01935	1502.76282	-618.91327	-563.40912	1440.69092	-513.11542	-775.97406	1432.31921	-427.64960	-467.53833	1233.23987	-549.44458	-891.41376	1239.15308	-554.88776	-685.22900	1175.56274	-429.04297	-678.93243	1293.97925	-663.18829	-399.06909	945.78632	-569.59729	-967.52722	992.88110	-609.43970	-361.45496	761.43329	-410.13123	-1046.44275	748.97546	-528.69666	-560.04559	864.56744	-405.65283	-918.36975	772.80890	-721.91846	-640.96057	897.91449	-713.86127	-589.10431	413.81598	-449.74081	-925.46564	466.31909	-415.68875	-652.63361	63.81943	-555.52161	-907.35907	164.25769	-618.03479	
147	1.460	-660.21088	1396.88928	-319.69724	-683.10663	1502.90967	-610.26172	-563.73328	1440.63025	-504.34027	-777.07721	1431.89417	-418.56100	-468.37866	1233.19507	-541.95984	-891.68567	1239.92822	-545.34644	-685.13580	1175.23755	-419.52359	-679.99084	1294.86682	-655.81262	-398.65726	945.77789	-559.97681	-968.01294	993.25098	-599.59216	-361.65094	764.35144	-397.36264	-1047.24304	750.15442	-516.14447	-558.80341	864.10638	-398.77386	-917.12152	773.27740	-708.85065	-643.48285	896.87640	-705.85785	-585.50079	412.32828	-446.39761	-923.51154	468.51334	-399.34006	-652.64337	63.70828	-555.37964	-914.91718	157.26241	-593.23364	
148	1.470	-659.73883	1396.84558	-310.32565	-684.26733	1502.67017	-601.50043	-563.78693	1441.32788	-497.06583	-775.73987	1432.05151	-408.40286	-468.33075	1233.07532	-533.23523	-891.87439	1239.48511	-535.08313	-684.35419	1175.00854	-411.76202	-680.14014	1293.13391	-644.94855	-396.20309	945.72699	-550.32190	-967.73633	992.62567	-589.32056	-362.80881	766.16260	-384.39221	-1046.42603	750.25378	-503.46170	-555.85034	864.07404	-390.64011	-829.86420	860.94885	-421.93393	-646.88501	896.74615	-697.97351	-583.01685	410.19666	-443.55670	-920.25354	470.70041	-382.85706	-652.77441	62.91705	-554.56445	-920.61810	149.57848	-570.35669	
149	1.480	-661.11542	1392.86096	-311.94681	-685.51172	1502.24280	-592.49152	-564.56812	1442.09497	-488.76657	-777.16327	1431.32129	-399.82510	-468.56107	1232.97974	-525.63123	-893.00018	1240.46204	-525.81598	-682.95709	1174.62939	-403.27991	-681.08380	1292.92688	-635.60303	-395.68729	946.21899	-540.53088	-968.47009	992.79688	-579.00500	-363.39926	768.04816	-371.55496	-1046.69128	750.64862	-490.30859	-553.56494	863.74969	-384.36917	-832.56622	858.56519	-417.64941	-649.94873	896.41003	-690.34149	-581.94647	408.00507	-440.79730	-916.81079	473.95956	-368.01254	-652.76746	62.10804	-554.41479	-925.01935	145.47176	-536.87567	
150	1.490	-657.51373	1396.93848	-294.64236	-686.58380	1502.01123	-583.63080	-564.54657	1441.81885	-480.08185	-775.02637	1431.13623	-389.01999	-468.38370	1232.39783	-517.72119	-892.36597	1239.47998	-513.70831	-680.62543	1174.53369	-392.88754	-682.16016	1294.53857	-629.08728	-395.91370	945.83527	-529.78052	-970.44397	994.06000	-569.72882	-364.76352	769.60858	-360.07935	-1045.80298	750.79150	-478.18939	-550.85797	863.76569	-376.92737	-832.93988	857.30249	-411.51422	-652.83191	896.02466	-682.75153	-580.53442	406.57336	-439.13040	-912.16962	475.07867	-353.50262	-652.68921	61.71636	-554.58929	-928.80859	141.96812	-504.45605	
151	1.500	-659.58966	1394.01819	-292.69583	-687.69855	1501.54834	-574.32593	-564.87573	1442.02539	-470.90530	-777.41943	1430.12329	-380.72034	-468.60962	1232.80237	-510.28381	-892.28394	1240.13733	-503.62067	-679.79529	1173.94336	-383.36404	-683.23157	1295.05481	-619.46008	-396.52997	945.54279	-520.62067	-970.97388	993.83423	-558.33118	-365.72702	770.94458	-347.67139	-1045.76721	750.63483	-464.73953	-547.95453	862.80951	-369.89111	-832.10168	850.96704	-407.39282	-656.10773	895.73956	-674.48334	-579.45209	407.29742	-434.49072	-907.32208	474.91672	-338.63483	-653.13916	60.96793	-554.34570	-932.32281	134.68291	-475.92853	
152	1.510	-658.55493	1394.37170	-283.01752	-688.73730	1500.84424	-565.22797	-565.27490	1442.63269	-462.30246	-774.85980	1429.97644	-370.34564	-468.92850	1231.68372	-502.39453	-892.53845	1239.62170	-492.66147	-680.40936	1172.48926	-376.57172	-683.98041	1295.41516	-611.23291	-396.49649	944.62677	-509.71417	-971.48462	993.43475	-547.10114	-366.61609	771.45404	-336.15604	-1044.76367	750.50104	-451.78159	-545.49084	862.08612	-364.45242	-831.50964	850.34991	-399.14319	-659.27661	895.86359	-667.14130	-579.89783	406.59677	-430.78436	-901.46130	476.15607	-326.32767	-653.23889	60.81850	-554.19885	-935.35754	129.67731	-443.25620	
153	1.520	-654.94336	1396.14600	-266.34119	-689.80457	1500.16248	-555.76379	-565.23163	1442.59814	-453.80057	-774.15143	1428.57092	-360.07422	-469.03546	1231.24463	-494.59180	-892.06903	1239.28882	-481.16669	-677.79419	1171.96497	-365.74042	-684.51770	1294.81799	-601.63867	-395.14722	944.20795	-499.32773	-971.94751	993.61426	-535.88947	-366.68076	772.20569	-325.55072	-1044.08948	750.61670	-439.21588	-542.59381	860.41425	-358.30630	-829.09973	848.21619	-387.56332	-662.75769	895.79523	-659.27460	-581.06744	405.26855	-427.30429	-895.74921	475.01288	-312.90445	-653.67151	60.42416	-553.42181	-935.19458	130.44740	-399.22330	
154	1.530	-654.59369	1393.80383	-257.89609	-690.72717	1499.43823	-546.76563	-565.76337	1442.84705	-445.34366	-773.45313	1427.36267	-349.91144	-468.69839	1230.59900	-486.69131	-891.47028	1238.59741	-469.93060	-677.01093	1171.33826	-357.02615	-685.02795	1294.17810	-591.84729	-394.85815	943.42767	-488.97922	-972.31549	993.08148	-524.18176	-368.24969	772.66040	-314.71829	-1043.29053	750.71564	-426.94116	-540.30090	859.61639	-352.29471	-827.88788	845.57269	-380.09024	-666.17255	895.61072	-651.71692	-581.87854	405.37024	-422.74521	-890.07538	476.36124	-300.44598	-653.72101	60.64639	-552.74701	-936.61389	127.31729	-368.05554	
